<mxfile host="app.diagrams.net" modified="2023-10-25T15:54:28.113Z" agent="Mozilla/5.0 (Windows NT 10.0; Win64; x64) AppleWebKit/537.36 (KHTML, like Gecko) Chrome/118.0.0.0 Safari/537.36" etag="2z05S-yOJxGJR45_QP4n" version="22.0.8" type="device">
  <diagram id="C5RBs43oDa-KdzZeNtuy" name="Page-1">
    <mxGraphModel dx="1173" dy="1764" grid="1" gridSize="10" guides="1" tooltips="1" connect="1" arrows="1" fold="1" page="1" pageScale="1" pageWidth="827" pageHeight="1169" math="0" shadow="0">
      <root>
        <mxCell id="WIyWlLk6GJQsqaUBKTNV-0" />
        <mxCell id="WIyWlLk6GJQsqaUBKTNV-1" parent="WIyWlLk6GJQsqaUBKTNV-0" />
        <mxCell id="HI-OtZKMrspfqpBUlWnW-1" value="Mostrar Formularios" style="rounded=1;whiteSpace=wrap;html=1;" parent="WIyWlLk6GJQsqaUBKTNV-1" vertex="1">
          <mxGeometry x="340" y="70" width="120" height="60" as="geometry" />
        </mxCell>
        <mxCell id="HI-OtZKMrspfqpBUlWnW-2" value="" style="endArrow=classic;html=1;rounded=0;exitX=0.5;exitY=1;exitDx=0;exitDy=0;" parent="WIyWlLk6GJQsqaUBKTNV-1" source="KS0R4BOMxoZ6TH3nBn6Z-18" target="HI-OtZKMrspfqpBUlWnW-1" edge="1">
          <mxGeometry width="50" height="50" relative="1" as="geometry">
            <mxPoint x="400.0000000000002" y="40.000000000000114" as="sourcePoint" />
            <mxPoint x="490" y="30" as="targetPoint" />
          </mxGeometry>
        </mxCell>
        <mxCell id="HI-OtZKMrspfqpBUlWnW-4" value="" style="endArrow=classic;html=1;rounded=0;exitX=0.5;exitY=1;exitDx=0;exitDy=0;entryX=0.5;entryY=0;entryDx=0;entryDy=0;" parent="WIyWlLk6GJQsqaUBKTNV-1" source="HI-OtZKMrspfqpBUlWnW-1" target="wGfuq3AxSmYYdxGczAqa-5" edge="1">
          <mxGeometry width="50" height="50" relative="1" as="geometry">
            <mxPoint x="580" y="250" as="sourcePoint" />
            <mxPoint x="400" y="170" as="targetPoint" />
          </mxGeometry>
        </mxCell>
        <mxCell id="KS0R4BOMxoZ6TH3nBn6Z-7" value="Elegir el archivo" style="rounded=1;whiteSpace=wrap;html=1;" parent="WIyWlLk6GJQsqaUBKTNV-1" vertex="1">
          <mxGeometry x="340" y="290" width="120" height="60" as="geometry" />
        </mxCell>
        <mxCell id="KS0R4BOMxoZ6TH3nBn6Z-11" value="Guardar" style="rounded=1;whiteSpace=wrap;html=1;" parent="WIyWlLk6GJQsqaUBKTNV-1" vertex="1">
          <mxGeometry x="340" y="390" width="120" height="60" as="geometry" />
        </mxCell>
        <mxCell id="KS0R4BOMxoZ6TH3nBn6Z-12" value="" style="endArrow=classic;html=1;rounded=0;exitX=0.5;exitY=1;exitDx=0;exitDy=0;entryX=0.5;entryY=0;entryDx=0;entryDy=0;" parent="WIyWlLk6GJQsqaUBKTNV-1" source="KS0R4BOMxoZ6TH3nBn6Z-7" target="KS0R4BOMxoZ6TH3nBn6Z-11" edge="1">
          <mxGeometry width="50" height="50" relative="1" as="geometry">
            <mxPoint x="400" y="570" as="sourcePoint" />
            <mxPoint x="230" y="600" as="targetPoint" />
          </mxGeometry>
        </mxCell>
        <mxCell id="KS0R4BOMxoZ6TH3nBn6Z-13" value="BD" style="shape=cylinder3;whiteSpace=wrap;html=1;boundedLbl=1;backgroundOutline=1;size=15;" parent="WIyWlLk6GJQsqaUBKTNV-1" vertex="1">
          <mxGeometry x="680" y="10" width="60" height="80" as="geometry" />
        </mxCell>
        <mxCell id="KS0R4BOMxoZ6TH3nBn6Z-15" value="" style="endArrow=none;dashed=1;html=1;dashPattern=1 3;strokeWidth=2;rounded=0;exitX=1;exitY=0.5;exitDx=0;exitDy=0;entryX=0;entryY=1;entryDx=0;entryDy=-15;entryPerimeter=0;" parent="WIyWlLk6GJQsqaUBKTNV-1" source="KS0R4BOMxoZ6TH3nBn6Z-11" target="KS0R4BOMxoZ6TH3nBn6Z-13" edge="1">
          <mxGeometry width="50" height="50" relative="1" as="geometry">
            <mxPoint x="810" y="205" as="sourcePoint" />
            <mxPoint x="860" y="155" as="targetPoint" />
          </mxGeometry>
        </mxCell>
        <mxCell id="KS0R4BOMxoZ6TH3nBn6Z-16" value="" style="ellipse;whiteSpace=wrap;html=1;aspect=fixed;" parent="WIyWlLk6GJQsqaUBKTNV-1" vertex="1">
          <mxGeometry x="387.5" y="475" width="25" height="25" as="geometry" />
        </mxCell>
        <mxCell id="KS0R4BOMxoZ6TH3nBn6Z-17" value="" style="endArrow=classic;html=1;rounded=0;exitX=0.5;exitY=1;exitDx=0;exitDy=0;entryX=0.5;entryY=0;entryDx=0;entryDy=0;" parent="WIyWlLk6GJQsqaUBKTNV-1" source="KS0R4BOMxoZ6TH3nBn6Z-11" target="KS0R4BOMxoZ6TH3nBn6Z-16" edge="1">
          <mxGeometry width="50" height="50" relative="1" as="geometry">
            <mxPoint x="220" y="740" as="sourcePoint" />
            <mxPoint x="400" y="710" as="targetPoint" />
          </mxGeometry>
        </mxCell>
        <mxCell id="KS0R4BOMxoZ6TH3nBn6Z-18" value="1" style="ellipse;whiteSpace=wrap;html=1;aspect=fixed;" parent="WIyWlLk6GJQsqaUBKTNV-1" vertex="1">
          <mxGeometry x="387.5" y="10" width="25" height="25" as="geometry" />
        </mxCell>
        <mxCell id="KS0R4BOMxoZ6TH3nBn6Z-23" value="" style="ellipse;whiteSpace=wrap;html=1;aspect=fixed;" parent="WIyWlLk6GJQsqaUBKTNV-1" vertex="1">
          <mxGeometry x="387.5" y="-620" width="25" height="25" as="geometry" />
        </mxCell>
        <mxCell id="KS0R4BOMxoZ6TH3nBn6Z-25" value="" style="endArrow=classic;html=1;rounded=0;exitX=0.5;exitY=1;exitDx=0;exitDy=0;entryX=0.499;entryY=0.176;entryDx=0;entryDy=0;entryPerimeter=0;" parent="WIyWlLk6GJQsqaUBKTNV-1" source="KS0R4BOMxoZ6TH3nBn6Z-23" target="KS0R4BOMxoZ6TH3nBn6Z-26" edge="1">
          <mxGeometry width="50" height="50" relative="1" as="geometry">
            <mxPoint x="480" y="-570" as="sourcePoint" />
            <mxPoint x="400" y="-540" as="targetPoint" />
          </mxGeometry>
        </mxCell>
        <mxCell id="KS0R4BOMxoZ6TH3nBn6Z-26" value="Ingrese&lt;br&gt;Usuario" style="html=1;strokeWidth=1;shape=manualInput;whiteSpace=wrap;rounded=1;size=26;arcSize=11;" parent="WIyWlLk6GJQsqaUBKTNV-1" vertex="1">
          <mxGeometry x="350" y="-560" width="100" height="70" as="geometry" />
        </mxCell>
        <mxCell id="KS0R4BOMxoZ6TH3nBn6Z-27" value="" style="endArrow=classic;html=1;rounded=0;exitX=0.5;exitY=1;exitDx=0;exitDy=0;entryX=0.499;entryY=0.176;entryDx=0;entryDy=0;entryPerimeter=0;" parent="WIyWlLk6GJQsqaUBKTNV-1" target="KS0R4BOMxoZ6TH3nBn6Z-28" edge="1">
          <mxGeometry width="50" height="50" relative="1" as="geometry">
            <mxPoint x="400" y="-490" as="sourcePoint" />
            <mxPoint x="400" y="-435" as="targetPoint" />
          </mxGeometry>
        </mxCell>
        <mxCell id="KS0R4BOMxoZ6TH3nBn6Z-28" value="Ingrese&lt;br&gt;Contrase침a" style="html=1;strokeWidth=1;shape=manualInput;whiteSpace=wrap;rounded=1;size=26;arcSize=11;" parent="WIyWlLk6GJQsqaUBKTNV-1" vertex="1">
          <mxGeometry x="350" y="-455" width="100" height="70" as="geometry" />
        </mxCell>
        <mxCell id="KS0R4BOMxoZ6TH3nBn6Z-29" value="Presionar Bot칩n&amp;nbsp;&lt;br&gt;Iniciar Sesi칩n" style="rounded=1;whiteSpace=wrap;html=1;" parent="WIyWlLk6GJQsqaUBKTNV-1" vertex="1">
          <mxGeometry x="340" y="-350" width="120" height="60" as="geometry" />
        </mxCell>
        <mxCell id="KS0R4BOMxoZ6TH3nBn6Z-30" value="" style="endArrow=classic;html=1;rounded=0;exitX=0.5;exitY=1;exitDx=0;exitDy=0;entryX=0.5;entryY=0;entryDx=0;entryDy=0;" parent="WIyWlLk6GJQsqaUBKTNV-1" source="KS0R4BOMxoZ6TH3nBn6Z-28" target="KS0R4BOMxoZ6TH3nBn6Z-29" edge="1">
          <mxGeometry width="50" height="50" relative="1" as="geometry">
            <mxPoint x="510" y="-330" as="sourcePoint" />
            <mxPoint x="560" y="-380" as="targetPoint" />
          </mxGeometry>
        </mxCell>
        <mxCell id="KS0R4BOMxoZ6TH3nBn6Z-31" value="Ingreso Datos" style="strokeWidth=1;html=1;shape=mxgraph.flowchart.decision;whiteSpace=wrap;" parent="WIyWlLk6GJQsqaUBKTNV-1" vertex="1">
          <mxGeometry x="365" y="-260" width="70" height="70" as="geometry" />
        </mxCell>
        <mxCell id="KS0R4BOMxoZ6TH3nBn6Z-32" value="" style="endArrow=classic;html=1;rounded=0;exitX=0.5;exitY=1;exitDx=0;exitDy=0;entryX=0.5;entryY=0;entryDx=0;entryDy=0;entryPerimeter=0;" parent="WIyWlLk6GJQsqaUBKTNV-1" source="KS0R4BOMxoZ6TH3nBn6Z-29" target="KS0R4BOMxoZ6TH3nBn6Z-31" edge="1">
          <mxGeometry width="50" height="50" relative="1" as="geometry">
            <mxPoint x="240" y="-210" as="sourcePoint" />
            <mxPoint x="290" y="-260" as="targetPoint" />
          </mxGeometry>
        </mxCell>
        <mxCell id="KS0R4BOMxoZ6TH3nBn6Z-33" value="" style="endArrow=classic;html=1;rounded=0;entryX=-0.014;entryY=0.829;entryDx=0;entryDy=0;exitX=0;exitY=0.5;exitDx=0;exitDy=0;exitPerimeter=0;entryPerimeter=0;" parent="WIyWlLk6GJQsqaUBKTNV-1" source="KS0R4BOMxoZ6TH3nBn6Z-31" target="KS0R4BOMxoZ6TH3nBn6Z-26" edge="1">
          <mxGeometry width="50" height="50" relative="1" as="geometry">
            <mxPoint x="325" y="-260" as="sourcePoint" />
            <mxPoint x="310" y="-542.5" as="targetPoint" />
            <Array as="points">
              <mxPoint x="240" y="-225" />
              <mxPoint x="240" y="-500" />
            </Array>
          </mxGeometry>
        </mxCell>
        <mxCell id="KS0R4BOMxoZ6TH3nBn6Z-34" value="No" style="text;html=1;strokeColor=none;fillColor=none;align=center;verticalAlign=middle;whiteSpace=wrap;rounded=0;" parent="WIyWlLk6GJQsqaUBKTNV-1" vertex="1">
          <mxGeometry x="320" y="-250" width="60" height="30" as="geometry" />
        </mxCell>
        <mxCell id="KS0R4BOMxoZ6TH3nBn6Z-36" value="Validaci칩n&lt;br&gt;Datos" style="strokeWidth=1;html=1;shape=mxgraph.flowchart.decision;whiteSpace=wrap;" parent="WIyWlLk6GJQsqaUBKTNV-1" vertex="1">
          <mxGeometry x="530" y="-265" width="90" height="80" as="geometry" />
        </mxCell>
        <mxCell id="KS0R4BOMxoZ6TH3nBn6Z-37" value="" style="endArrow=classic;html=1;rounded=0;exitX=1;exitY=0.5;exitDx=0;exitDy=0;exitPerimeter=0;entryX=0;entryY=0.5;entryDx=0;entryDy=0;entryPerimeter=0;" parent="WIyWlLk6GJQsqaUBKTNV-1" source="KS0R4BOMxoZ6TH3nBn6Z-31" target="KS0R4BOMxoZ6TH3nBn6Z-36" edge="1">
          <mxGeometry width="50" height="50" relative="1" as="geometry">
            <mxPoint x="450" y="-210" as="sourcePoint" />
            <mxPoint x="510" y="-240" as="targetPoint" />
          </mxGeometry>
        </mxCell>
        <mxCell id="KS0R4BOMxoZ6TH3nBn6Z-39" value="Si" style="text;html=1;strokeColor=none;fillColor=none;align=center;verticalAlign=middle;whiteSpace=wrap;rounded=0;" parent="WIyWlLk6GJQsqaUBKTNV-1" vertex="1">
          <mxGeometry x="414" y="-250" width="60" height="30" as="geometry" />
        </mxCell>
        <mxCell id="KS0R4BOMxoZ6TH3nBn6Z-40" value="Si" style="text;html=1;strokeColor=none;fillColor=none;align=center;verticalAlign=middle;whiteSpace=wrap;rounded=0;" parent="WIyWlLk6GJQsqaUBKTNV-1" vertex="1">
          <mxGeometry x="560" y="-190" width="60" height="30" as="geometry" />
        </mxCell>
        <mxCell id="KS0R4BOMxoZ6TH3nBn6Z-41" value="No" style="text;html=1;strokeColor=none;fillColor=none;align=center;verticalAlign=middle;whiteSpace=wrap;rounded=0;" parent="WIyWlLk6GJQsqaUBKTNV-1" vertex="1">
          <mxGeometry x="560" y="-295" width="60" height="30" as="geometry" />
        </mxCell>
        <mxCell id="KS0R4BOMxoZ6TH3nBn6Z-42" value="Mensaje" style="rounded=1;whiteSpace=wrap;html=1;" parent="WIyWlLk6GJQsqaUBKTNV-1" vertex="1">
          <mxGeometry x="535" y="-385" width="80" height="40" as="geometry" />
        </mxCell>
        <mxCell id="KS0R4BOMxoZ6TH3nBn6Z-43" value="" style="endArrow=classic;html=1;rounded=0;exitX=0.5;exitY=0;exitDx=0;exitDy=0;exitPerimeter=0;entryX=0.5;entryY=1;entryDx=0;entryDy=0;" parent="WIyWlLk6GJQsqaUBKTNV-1" source="KS0R4BOMxoZ6TH3nBn6Z-36" target="KS0R4BOMxoZ6TH3nBn6Z-42" edge="1">
          <mxGeometry width="50" height="50" relative="1" as="geometry">
            <mxPoint x="650" y="-280" as="sourcePoint" />
            <mxPoint x="700" y="-330" as="targetPoint" />
          </mxGeometry>
        </mxCell>
        <mxCell id="KS0R4BOMxoZ6TH3nBn6Z-44" value="" style="endArrow=classic;html=1;rounded=0;exitX=0.5;exitY=0;exitDx=0;exitDy=0;entryX=0.996;entryY=0.589;entryDx=0;entryDy=0;entryPerimeter=0;" parent="WIyWlLk6GJQsqaUBKTNV-1" source="KS0R4BOMxoZ6TH3nBn6Z-42" target="KS0R4BOMxoZ6TH3nBn6Z-26" edge="1">
          <mxGeometry width="50" height="50" relative="1" as="geometry">
            <mxPoint x="510" y="-440" as="sourcePoint" />
            <mxPoint x="560" y="-490" as="targetPoint" />
            <Array as="points">
              <mxPoint x="575" y="-519" />
            </Array>
          </mxGeometry>
        </mxCell>
        <mxCell id="KS0R4BOMxoZ6TH3nBn6Z-45" value="Dar acceso" style="rounded=1;whiteSpace=wrap;html=1;" parent="WIyWlLk6GJQsqaUBKTNV-1" vertex="1">
          <mxGeometry x="530" y="-70" width="90" height="50" as="geometry" />
        </mxCell>
        <mxCell id="KS0R4BOMxoZ6TH3nBn6Z-46" value="" style="endArrow=classic;html=1;rounded=0;exitX=0.25;exitY=0;exitDx=0;exitDy=0;entryX=0.5;entryY=0;entryDx=0;entryDy=0;" parent="WIyWlLk6GJQsqaUBKTNV-1" source="KS0R4BOMxoZ6TH3nBn6Z-40" target="wGfuq3AxSmYYdxGczAqa-2" edge="1">
          <mxGeometry width="50" height="50" relative="1" as="geometry">
            <mxPoint x="420" y="-90" as="sourcePoint" />
            <mxPoint x="575" y="-160" as="targetPoint" />
          </mxGeometry>
        </mxCell>
        <mxCell id="KS0R4BOMxoZ6TH3nBn6Z-47" value="" style="endArrow=none;dashed=1;html=1;dashPattern=1 3;strokeWidth=2;rounded=0;exitX=0.5;exitY=0;exitDx=0;exitDy=0;exitPerimeter=0;entryX=1;entryY=0.5;entryDx=0;entryDy=0;entryPerimeter=0;" parent="WIyWlLk6GJQsqaUBKTNV-1" source="KS0R4BOMxoZ6TH3nBn6Z-13" target="KS0R4BOMxoZ6TH3nBn6Z-36" edge="1">
          <mxGeometry width="50" height="50" relative="1" as="geometry">
            <mxPoint x="690" y="-90" as="sourcePoint" />
            <mxPoint x="740" y="-140" as="targetPoint" />
          </mxGeometry>
        </mxCell>
        <mxCell id="KS0R4BOMxoZ6TH3nBn6Z-48" value="" style="ellipse;whiteSpace=wrap;html=1;aspect=fixed;" parent="WIyWlLk6GJQsqaUBKTNV-1" vertex="1">
          <mxGeometry x="562.5" width="25" height="25" as="geometry" />
        </mxCell>
        <mxCell id="KS0R4BOMxoZ6TH3nBn6Z-49" value="" style="endArrow=classic;html=1;rounded=0;exitX=0.5;exitY=1;exitDx=0;exitDy=0;entryX=0.5;entryY=0;entryDx=0;entryDy=0;" parent="WIyWlLk6GJQsqaUBKTNV-1" source="KS0R4BOMxoZ6TH3nBn6Z-45" target="KS0R4BOMxoZ6TH3nBn6Z-48" edge="1">
          <mxGeometry width="50" height="50" relative="1" as="geometry">
            <mxPoint x="500" y="40" as="sourcePoint" />
            <mxPoint x="550" y="-10" as="targetPoint" />
          </mxGeometry>
        </mxCell>
        <mxCell id="KS0R4BOMxoZ6TH3nBn6Z-50" value="" style="endArrow=classic;html=1;rounded=0;entryX=0.009;entryY=0.625;entryDx=0;entryDy=0;exitX=0;exitY=0.5;exitDx=0;exitDy=0;entryPerimeter=0;" parent="WIyWlLk6GJQsqaUBKTNV-1" source="KS0R4BOMxoZ6TH3nBn6Z-11" target="HI-OtZKMrspfqpBUlWnW-1" edge="1">
          <mxGeometry width="50" height="50" relative="1" as="geometry">
            <mxPoint x="330" y="600" as="sourcePoint" />
            <mxPoint x="300" y="170" as="targetPoint" />
            <Array as="points">
              <mxPoint x="240" y="420" />
              <mxPoint x="240" y="108" />
            </Array>
          </mxGeometry>
        </mxCell>
        <mxCell id="KS0R4BOMxoZ6TH3nBn6Z-51" value="2" style="ellipse;whiteSpace=wrap;html=1;aspect=fixed;" parent="WIyWlLk6GJQsqaUBKTNV-1" vertex="1">
          <mxGeometry x="1027" y="10" width="25" height="25" as="geometry" />
        </mxCell>
        <mxCell id="KS0R4BOMxoZ6TH3nBn6Z-53" value="&lt;div style=&quot;line-height: 140%;&quot;&gt;&lt;span style=&quot;background-color: initial;&quot;&gt;&lt;font style=&quot;font-size: 12px;&quot;&gt;Ingresa Codigo del archivo&lt;/font&gt;&lt;/span&gt;&lt;/div&gt;" style="html=1;strokeWidth=1;shape=manualInput;whiteSpace=wrap;rounded=1;size=26;arcSize=11;align=center;" parent="WIyWlLk6GJQsqaUBKTNV-1" vertex="1">
          <mxGeometry x="986" y="50" width="107" height="80" as="geometry" />
        </mxCell>
        <mxCell id="KS0R4BOMxoZ6TH3nBn6Z-54" value="" style="endArrow=classic;html=1;rounded=0;exitX=0.5;exitY=1;exitDx=0;exitDy=0;entryX=0.509;entryY=0.156;entryDx=0;entryDy=0;entryPerimeter=0;" parent="WIyWlLk6GJQsqaUBKTNV-1" source="KS0R4BOMxoZ6TH3nBn6Z-51" target="KS0R4BOMxoZ6TH3nBn6Z-53" edge="1">
          <mxGeometry width="50" height="50" relative="1" as="geometry">
            <mxPoint x="883" y="100" as="sourcePoint" />
            <mxPoint x="933" y="50" as="targetPoint" />
          </mxGeometry>
        </mxCell>
        <mxCell id="KS0R4BOMxoZ6TH3nBn6Z-55" value="Consulta del c칩digo" style="rounded=1;whiteSpace=wrap;html=1;strokeWidth=1;" parent="WIyWlLk6GJQsqaUBKTNV-1" vertex="1">
          <mxGeometry x="979.5" y="190" width="120" height="60" as="geometry" />
        </mxCell>
        <mxCell id="KS0R4BOMxoZ6TH3nBn6Z-56" value="" style="endArrow=classic;html=1;rounded=0;exitX=0.5;exitY=1;exitDx=0;exitDy=0;entryX=0.5;entryY=0;entryDx=0;entryDy=0;" parent="WIyWlLk6GJQsqaUBKTNV-1" source="KS0R4BOMxoZ6TH3nBn6Z-53" target="KS0R4BOMxoZ6TH3nBn6Z-55" edge="1">
          <mxGeometry width="50" height="50" relative="1" as="geometry">
            <mxPoint x="883" y="200" as="sourcePoint" />
            <mxPoint x="933" y="150" as="targetPoint" />
          </mxGeometry>
        </mxCell>
        <mxCell id="KS0R4BOMxoZ6TH3nBn6Z-57" value="" style="endArrow=none;dashed=1;html=1;dashPattern=1 3;strokeWidth=2;rounded=0;entryX=1;entryY=1;entryDx=0;entryDy=-15;entryPerimeter=0;exitX=0;exitY=0.5;exitDx=0;exitDy=0;" parent="WIyWlLk6GJQsqaUBKTNV-1" source="KS0R4BOMxoZ6TH3nBn6Z-55" target="KS0R4BOMxoZ6TH3nBn6Z-13" edge="1">
          <mxGeometry width="50" height="50" relative="1" as="geometry">
            <mxPoint x="820" y="260" as="sourcePoint" />
            <mxPoint x="870" y="210" as="targetPoint" />
          </mxGeometry>
        </mxCell>
        <mxCell id="KS0R4BOMxoZ6TH3nBn6Z-58" value="Existe&lt;br&gt;el archivo" style="rhombus;whiteSpace=wrap;html=1;strokeWidth=1;" parent="WIyWlLk6GJQsqaUBKTNV-1" vertex="1">
          <mxGeometry x="999.5" y="290" width="80" height="80" as="geometry" />
        </mxCell>
        <mxCell id="KS0R4BOMxoZ6TH3nBn6Z-59" value="" style="endArrow=classic;html=1;rounded=0;exitX=0.5;exitY=1;exitDx=0;exitDy=0;entryX=0.5;entryY=0;entryDx=0;entryDy=0;" parent="WIyWlLk6GJQsqaUBKTNV-1" source="KS0R4BOMxoZ6TH3nBn6Z-55" target="KS0R4BOMxoZ6TH3nBn6Z-58" edge="1">
          <mxGeometry width="50" height="50" relative="1" as="geometry">
            <mxPoint x="923" y="310" as="sourcePoint" />
            <mxPoint x="973" y="260" as="targetPoint" />
          </mxGeometry>
        </mxCell>
        <mxCell id="KS0R4BOMxoZ6TH3nBn6Z-61" value="No" style="text;html=1;strokeColor=none;fillColor=none;align=center;verticalAlign=middle;whiteSpace=wrap;rounded=0;" parent="WIyWlLk6GJQsqaUBKTNV-1" vertex="1">
          <mxGeometry x="953" y="300" width="60" height="30" as="geometry" />
        </mxCell>
        <mxCell id="KS0R4BOMxoZ6TH3nBn6Z-62" value="" style="endArrow=classic;html=1;rounded=0;exitX=0.5;exitY=1;exitDx=0;exitDy=0;entryX=0.5;entryY=0;entryDx=0;entryDy=0;" parent="WIyWlLk6GJQsqaUBKTNV-1" source="KS0R4BOMxoZ6TH3nBn6Z-58" target="KS0R4BOMxoZ6TH3nBn6Z-64" edge="1">
          <mxGeometry width="50" height="50" relative="1" as="geometry">
            <mxPoint x="1053" y="440" as="sourcePoint" />
            <mxPoint x="1040" y="410" as="targetPoint" />
          </mxGeometry>
        </mxCell>
        <mxCell id="KS0R4BOMxoZ6TH3nBn6Z-64" value="Mostrar archivo" style="shape=document;whiteSpace=wrap;html=1;boundedLbl=1;size=0.3333333333333333;strokeWidth=1;" parent="WIyWlLk6GJQsqaUBKTNV-1" vertex="1">
          <mxGeometry x="996.25" y="425" width="86.5" height="60" as="geometry" />
        </mxCell>
        <mxCell id="KS0R4BOMxoZ6TH3nBn6Z-65" value="Si" style="text;html=1;strokeColor=none;fillColor=none;align=center;verticalAlign=middle;whiteSpace=wrap;rounded=0;" parent="WIyWlLk6GJQsqaUBKTNV-1" vertex="1">
          <mxGeometry x="986" y="360" width="60" height="30" as="geometry" />
        </mxCell>
        <mxCell id="KS0R4BOMxoZ6TH3nBn6Z-67" value="" style="endArrow=classic;html=1;rounded=0;exitX=0.512;exitY=0.862;exitDx=0;exitDy=0;exitPerimeter=0;" parent="WIyWlLk6GJQsqaUBKTNV-1" source="KS0R4BOMxoZ6TH3nBn6Z-64" target="KS0R4BOMxoZ6TH3nBn6Z-68" edge="1">
          <mxGeometry width="50" height="50" relative="1" as="geometry">
            <mxPoint x="763" y="510" as="sourcePoint" />
            <mxPoint x="1041.5" y="520" as="targetPoint" />
          </mxGeometry>
        </mxCell>
        <mxCell id="KS0R4BOMxoZ6TH3nBn6Z-68" value="Descargar" style="rhombus;whiteSpace=wrap;html=1;" parent="WIyWlLk6GJQsqaUBKTNV-1" vertex="1">
          <mxGeometry x="999.5" y="520" width="80" height="80" as="geometry" />
        </mxCell>
        <mxCell id="KS0R4BOMxoZ6TH3nBn6Z-70" value="" style="endArrow=classic;html=1;rounded=0;exitX=1;exitY=0.5;exitDx=0;exitDy=0;entryX=1;entryY=0.25;entryDx=0;entryDy=0;" parent="WIyWlLk6GJQsqaUBKTNV-1" source="KS0R4BOMxoZ6TH3nBn6Z-68" target="KS0R4BOMxoZ6TH3nBn6Z-53" edge="1">
          <mxGeometry width="50" height="50" relative="1" as="geometry">
            <mxPoint x="1093" y="560" as="sourcePoint" />
            <mxPoint x="1143" y="510" as="targetPoint" />
            <Array as="points">
              <mxPoint x="1213" y="560" />
              <mxPoint x="1203" y="70" />
            </Array>
          </mxGeometry>
        </mxCell>
        <mxCell id="KS0R4BOMxoZ6TH3nBn6Z-71" value="No" style="text;html=1;strokeColor=none;fillColor=none;align=center;verticalAlign=middle;whiteSpace=wrap;rounded=0;" parent="WIyWlLk6GJQsqaUBKTNV-1" vertex="1">
          <mxGeometry x="1063" y="530" width="60" height="30" as="geometry" />
        </mxCell>
        <mxCell id="KS0R4BOMxoZ6TH3nBn6Z-72" value="Descargar&lt;br&gt;Archivo" style="rounded=1;whiteSpace=wrap;html=1;" parent="WIyWlLk6GJQsqaUBKTNV-1" vertex="1">
          <mxGeometry x="991" y="640" width="97" height="50" as="geometry" />
        </mxCell>
        <mxCell id="KS0R4BOMxoZ6TH3nBn6Z-73" value="" style="endArrow=classic;html=1;rounded=0;exitX=0.5;exitY=1;exitDx=0;exitDy=0;entryX=0.5;entryY=0;entryDx=0;entryDy=0;" parent="WIyWlLk6GJQsqaUBKTNV-1" source="KS0R4BOMxoZ6TH3nBn6Z-68" target="KS0R4BOMxoZ6TH3nBn6Z-72" edge="1">
          <mxGeometry width="50" height="50" relative="1" as="geometry">
            <mxPoint x="863" y="630" as="sourcePoint" />
            <mxPoint x="913" y="580" as="targetPoint" />
          </mxGeometry>
        </mxCell>
        <mxCell id="KS0R4BOMxoZ6TH3nBn6Z-74" value="Si" style="text;html=1;strokeColor=none;fillColor=none;align=center;verticalAlign=middle;whiteSpace=wrap;rounded=0;" parent="WIyWlLk6GJQsqaUBKTNV-1" vertex="1">
          <mxGeometry x="986" y="600" width="60" height="30" as="geometry" />
        </mxCell>
        <mxCell id="KS0R4BOMxoZ6TH3nBn6Z-75" value="" style="ellipse;whiteSpace=wrap;html=1;aspect=fixed;" parent="WIyWlLk6GJQsqaUBKTNV-1" vertex="1">
          <mxGeometry x="1027" y="760" width="25" height="25" as="geometry" />
        </mxCell>
        <mxCell id="KS0R4BOMxoZ6TH3nBn6Z-76" value="" style="endArrow=classic;html=1;rounded=0;exitX=0.5;exitY=1;exitDx=0;exitDy=0;entryX=0.5;entryY=0;entryDx=0;entryDy=0;" parent="WIyWlLk6GJQsqaUBKTNV-1" source="KS0R4BOMxoZ6TH3nBn6Z-72" target="KS0R4BOMxoZ6TH3nBn6Z-75" edge="1">
          <mxGeometry width="50" height="50" relative="1" as="geometry">
            <mxPoint x="886" y="750" as="sourcePoint" />
            <mxPoint x="936" y="700" as="targetPoint" />
          </mxGeometry>
        </mxCell>
        <mxCell id="KS0R4BOMxoZ6TH3nBn6Z-78" value="Mensaje" style="rounded=1;whiteSpace=wrap;html=1;" parent="WIyWlLk6GJQsqaUBKTNV-1" vertex="1">
          <mxGeometry x="820" y="180" width="93" height="50" as="geometry" />
        </mxCell>
        <mxCell id="KS0R4BOMxoZ6TH3nBn6Z-79" value="" style="endArrow=classic;html=1;rounded=0;entryX=0.5;entryY=1;entryDx=0;entryDy=0;exitX=0;exitY=0.5;exitDx=0;exitDy=0;" parent="WIyWlLk6GJQsqaUBKTNV-1" source="KS0R4BOMxoZ6TH3nBn6Z-58" target="KS0R4BOMxoZ6TH3nBn6Z-78" edge="1">
          <mxGeometry width="50" height="50" relative="1" as="geometry">
            <mxPoint x="883" y="340" as="sourcePoint" />
            <mxPoint x="933" y="290" as="targetPoint" />
            <Array as="points">
              <mxPoint x="867" y="330" />
            </Array>
          </mxGeometry>
        </mxCell>
        <mxCell id="KS0R4BOMxoZ6TH3nBn6Z-80" value="" style="endArrow=classic;html=1;rounded=0;entryX=0;entryY=0.75;entryDx=0;entryDy=0;exitX=0.5;exitY=0;exitDx=0;exitDy=0;" parent="WIyWlLk6GJQsqaUBKTNV-1" source="KS0R4BOMxoZ6TH3nBn6Z-78" target="KS0R4BOMxoZ6TH3nBn6Z-53" edge="1">
          <mxGeometry width="50" height="50" relative="1" as="geometry">
            <mxPoint x="753" y="170" as="sourcePoint" />
            <mxPoint x="803" y="120" as="targetPoint" />
            <Array as="points">
              <mxPoint x="867" y="110" />
            </Array>
          </mxGeometry>
        </mxCell>
        <mxCell id="wGfuq3AxSmYYdxGczAqa-2" value="Obtener Rol del Usuario" style="rounded=1;whiteSpace=wrap;html=1;" vertex="1" parent="WIyWlLk6GJQsqaUBKTNV-1">
          <mxGeometry x="530" y="-150" width="90" height="50" as="geometry" />
        </mxCell>
        <mxCell id="wGfuq3AxSmYYdxGczAqa-4" value="" style="endArrow=classic;html=1;rounded=0;exitX=0.5;exitY=1;exitDx=0;exitDy=0;entryX=0.5;entryY=0;entryDx=0;entryDy=0;" edge="1" parent="WIyWlLk6GJQsqaUBKTNV-1" source="wGfuq3AxSmYYdxGczAqa-2" target="KS0R4BOMxoZ6TH3nBn6Z-45">
          <mxGeometry width="50" height="50" relative="1" as="geometry">
            <mxPoint x="400" y="-60" as="sourcePoint" />
            <mxPoint x="450" y="-110" as="targetPoint" />
          </mxGeometry>
        </mxCell>
        <mxCell id="wGfuq3AxSmYYdxGczAqa-5" value="Obtener categor칤a" style="rounded=1;whiteSpace=wrap;html=1;" vertex="1" parent="WIyWlLk6GJQsqaUBKTNV-1">
          <mxGeometry x="340" y="170" width="120" height="60" as="geometry" />
        </mxCell>
        <mxCell id="wGfuq3AxSmYYdxGczAqa-6" value="" style="endArrow=classic;html=1;rounded=0;exitX=0.5;exitY=1;exitDx=0;exitDy=0;entryX=0.5;entryY=0;entryDx=0;entryDy=0;" edge="1" parent="WIyWlLk6GJQsqaUBKTNV-1" source="wGfuq3AxSmYYdxGczAqa-5" target="KS0R4BOMxoZ6TH3nBn6Z-7">
          <mxGeometry width="50" height="50" relative="1" as="geometry">
            <mxPoint x="280" y="280" as="sourcePoint" />
            <mxPoint x="330" y="230" as="targetPoint" />
          </mxGeometry>
        </mxCell>
        <mxCell id="wGfuq3AxSmYYdxGczAqa-7" value="" style="endArrow=none;dashed=1;html=1;dashPattern=1 3;strokeWidth=2;rounded=0;exitX=1;exitY=0.5;exitDx=0;exitDy=0;entryX=0;entryY=0;entryDx=0;entryDy=52.5;entryPerimeter=0;" edge="1" parent="WIyWlLk6GJQsqaUBKTNV-1" source="wGfuq3AxSmYYdxGczAqa-5" target="KS0R4BOMxoZ6TH3nBn6Z-13">
          <mxGeometry width="50" height="50" relative="1" as="geometry">
            <mxPoint x="560" y="100" as="sourcePoint" />
            <mxPoint x="610" y="50" as="targetPoint" />
          </mxGeometry>
        </mxCell>
      </root>
    </mxGraphModel>
  </diagram>
</mxfile>
